<svg width="24" height="24" viewBox="0 0 24 24" fill="none" xmlns="http://www.w3.org/2000/svg">
<g clip-path="url(#clip0)">
<path d="M1.86602 19.2846L9.72687 23.8231C10.2052 24.0992 10.8168 23.9353 11.0929 23.457L11.939 21.9915C12.2152 21.5132 12.0513 20.9016 11.573 20.6254L3.71218 16.087C3.23388 15.8108 2.62229 15.9747 2.34615 16.453L1.5 17.9186C1.22386 18.3969 1.38773 19.0085 1.86602 19.2846Z" fill="#758BFD"/>
<path d="M12.9337 12.884L18.8953 2.55832C19.1714 2.08003 19.0075 1.46844 18.5292 1.1923L17.0637 0.346143C16.5854 0.0700006 15.9738 0.233876 15.6976 0.712168L9.73609 11.0379L9.31917 9.48189C9.17623 8.94842 8.62789 8.63184 8.09442 8.77478L7.50438 8.93288C6.97092 9.07582 6.65433 9.62416 6.79727 10.1576L8.30685 15.7915C8.4498 16.3249 8.99813 16.6415 9.5316 16.4986L15.1654 14.989C15.6989 14.846 16.0155 14.2977 15.8725 13.7642L15.7144 13.1742C15.5715 12.6407 15.0232 12.3241 14.4897 12.4671L12.9337 12.884Z" fill="#758BFD"/>
</g>
<defs>
<clipPath id="clip0">
<rect width="24" height="24" fill="white"/>
</clipPath>
</defs>
</svg>
