<svg width="24" height="24" viewBox="0 0 24 24" fill="none" xmlns="http://www.w3.org/2000/svg">
<g clip-path="url(#clip0)">
<path d="M11.573 20.6254L3.71216 16.087C3.23386 15.8108 2.62227 15.9747 2.34613 16.453L1.49998 17.9186C1.22383 18.3969 1.38771 19.0085 1.866 19.2846L9.72685 23.8231C10.2051 24.0992 10.8167 23.9353 11.0929 23.457L11.939 21.9915C12.2152 21.5132 12.0513 20.9016 11.573 20.6254Z" fill="#F2C94C"/>
<path d="M13.4284 4.6426L7.46686 14.9683C7.19072 15.4466 7.3546 16.0582 7.83289 16.3343L9.29847 17.1805C9.77676 17.4566 10.3884 17.2927 10.6645 16.8144L16.626 6.48876L17.043 8.04472C17.1859 8.57819 17.7342 8.89477 18.2677 8.75183L18.8577 8.59373C19.3912 8.45079 19.7078 7.90245 19.5648 7.36898L18.0553 1.73516C17.9123 1.20169 17.364 0.885108 16.8305 1.02805L11.1967 2.53763C10.6632 2.68057 10.3466 3.22891 10.4896 3.76237L10.6477 4.35242C10.7906 4.88588 11.339 5.20246 11.8724 5.05952L13.4284 4.6426Z" fill="#F2C94C"/>
</g>
<defs>
<clipPath id="clip0">
<rect width="24" height="24" fill="white"/>
</clipPath>
</defs>
</svg>
