<svg width="24" height="24" viewBox="0 0 24 24" fill="none" xmlns="http://www.w3.org/2000/svg">
<path d="M14.4737 1H7.69194C7.00158 1 6.44214 1.55964 6.44214 2.25V18.1079C6.44214 18.7983 7.00178 19.3579 7.69214 19.3579H18.9606C19.6509 19.3579 20.2106 18.799 20.2106 18.1086V6.16316C20.2106 5.58947 15.6211 1 14.4737 1Z" fill="#F5F5F5"/>
<path d="M4.2498 4.94211H11.0315C11.0311 4.94211 11.0309 4.94211 11.0309 4.94212C11.0309 4.94227 11.058 4.94409 11.1202 4.96583C11.1846 4.98832 11.2679 5.0255 11.3706 5.08074C11.5763 5.19143 11.8281 5.35743 12.114 5.56963C12.6841 5.9929 13.3496 6.57013 13.987 7.17206C14.6235 7.77327 15.2217 8.38942 15.6575 8.88622C15.8763 9.13566 16.0474 9.34736 16.1609 9.50764C16.2139 9.58241 16.2483 9.63769 16.2684 9.67482V21.5507C16.2684 21.9646 15.933 22.3 15.5184 22.3H4.25C3.83579 22.3 3.5 21.9642 3.5 21.55V5.69211C3.5 5.27779 3.83569 4.94211 4.2498 4.94211ZM16.2854 9.71023C16.2852 9.71015 16.2841 9.70756 16.2824 9.70271C16.2847 9.70787 16.2856 9.7103 16.2854 9.71023Z" stroke="#F5F5F5" stroke-linejoin="round"/>
</svg>
