<svg width="24" height="24" viewBox="0 0 24 24" fill="none" xmlns="http://www.w3.org/2000/svg">
<path d="M8.25 5C4.79822 5 2 7.79822 2 11.25V13.25C2 16.7018 4.79822 19.5 8.25 19.5H10.25C13.3614 19.5 15.9418 17.2264 16.4204 14.25H13.8652C13.4276 15.8356 11.9748 17 10.25 17H8.24865C6.1782 16.9993 4.5 15.3206 4.5 13.25V11.25C4.5 9.17893 6.17893 7.5 8.25 7.5H10.25C11.9748 7.5 13.4276 8.66441 13.8652 10.25H16.4204C15.9418 7.27357 13.3614 5 10.25 5H8.25Z" fill="#F5F5F5"/>
<path d="M8.25 12.25H22.25M22.25 12.25L18.25 8.25M22.25 12.25L18.25 16.25" stroke="#F5F5F5" stroke-width="2.5" stroke-linecap="round" stroke-linejoin="round"/>
</svg>
