<svg width="24" height="24" viewBox="0 0 24 24" fill="none" xmlns="http://www.w3.org/2000/svg">
<rect x="14" y="4" width="6" height="6" stroke="#F5F5F5" stroke-width="2"/>
<rect x="4" y="4" width="6" height="6" stroke="#F5F5F5" stroke-width="2"/>
<rect x="4" y="14" width="6" height="6" stroke="#F5F5F5" stroke-width="2"/>
<path d="M13 13H15V15H13V13Z" fill="#F5F5F5"/>
<path d="M19 19H21V21H19V19Z" fill="#F5F5F5"/>
<path d="M13 19H15V21H13V19Z" fill="#F5F5F5"/>
<path d="M15 15H16V16H15V15Z" fill="#F5F5F5"/>
<path d="M18 15H19V16H18V15Z" fill="#F5F5F5"/>
<path d="M16 16H18V18H16V16Z" fill="#F5F5F5"/>
<path d="M18 18H19V19H18V18Z" fill="#F5F5F5"/>
<path d="M18 13H19V14H18V13Z" fill="#F5F5F5"/>
<path d="M20 13H21V14H20V13Z" fill="#F5F5F5"/>
<path d="M19 15H20V16H19V15Z" fill="#F5F5F5"/>
<path d="M19 14H20V15H19V14Z" fill="#F5F5F5"/>
<path d="M0 4.80825e-07H2V11H0V4.80825e-07Z" fill="#F5F5F5"/>
<path d="M0 2V4.80825e-07L11 0V2L0 2Z" fill="#F5F5F5"/>
<path d="M24 24H22L22 13L24 13L24 24Z" fill="#F5F5F5"/>
<path d="M24 22V24H13L13 22H24Z" fill="#F5F5F5"/>
</svg>
