<svg width="24" height="24" viewBox="0 0 24 24" fill="none" xmlns="http://www.w3.org/2000/svg">
<path d="M10.4219 22H14.1737C14.4086 21.9998 14.6363 21.9218 14.8193 21.7788C15.0022 21.6359 15.1294 21.4366 15.1796 21.214L15.6053 19.335C16.1646 19.0975 16.6949 18.8003 17.1864 18.449L19.0798 19.034C19.3039 19.1033 19.5457 19.0962 19.765 19.0138C19.9844 18.9314 20.1681 18.7787 20.2857 18.581L22.1615 15.428C22.4007 15.021 22.3182 14.507 21.9626 14.189L20.4939 12.889C20.5607 12.3001 20.5607 11.7059 20.4939 11.117L21.9626 9.817C22.3182 9.5 22.4007 8.985 22.1615 8.578L20.2857 5.425C20.1682 5.22753 19.9846 5.07495 19.7655 4.99256C19.5463 4.91017 19.3048 4.90292 19.0808 4.972L17.1864 5.557C16.9493 5.388 16.703 5.231 16.4484 5.088C16.1753 4.933 15.8929 4.794 15.6043 4.67L15.1796 2.787C15.0816 2.35075 14.6326 2.01425 14.1857 2.0002L14.1737 2H10.4219C10.1869 2.00024 9.95902 2.07841 9.77605 2.22155C9.59309 2.36469 9.46605 2.5642 9.41599 2.787L8.99546 4.669C8.7213 4.784 8.45332 4.913 8.19255 5.055C7.92251 5.207 7.66072 5.375 7.40923 5.555L5.51584 4.97C5.29173 4.90066 5.04992 4.90778 4.83056 4.99019C4.6112 5.07259 4.42749 5.22532 4.30993 5.423L2.43407 8.576C2.31749 8.77397 2.27368 9.00449 2.30982 9.22978C2.34596 9.45507 2.45991 9.66177 2.633 9.816L4.10173 11.113C4.03494 11.7019 4.03494 12.2961 4.10173 12.885L2.633 14.185C2.46016 14.3392 2.34636 14.5457 2.31023 14.7708C2.27409 14.9958 2.31776 15.2261 2.43407 15.424L4.31406 18.575C4.43161 18.7727 4.61532 18.9254 4.83468 19.0078C5.05404 19.0902 5.29586 19.0973 5.51997 19.028L7.41335 18.443C7.90523 18.7946 8.43586 19.0921 8.99546 19.33L9.41495 21.214C9.46526 21.4368 9.59254 21.6362 9.7757 21.7792C9.95885 21.9221 10.1869 22 10.4219 22Z" fill="#F5F5F5"/>
</svg>
