<svg width="1000" height="1000" viewBox="0 0 1000 1000" fill="none" xmlns="http://www.w3.org/2000/svg">
<rect width="1000" height="1000" fill="black"/>
<mask id="mask0_105:50" style="mask-type:alpha" maskUnits="userSpaceOnUse" x="146" y="125" width="708" height="750">
<path d="M161.855 321.757L148.003 316.144L161.856 321.757C168.884 304.41 192.451 273.652 245.177 239.751C297.508 206.105 377.526 170.061 495.411 141.519C498.366 140.803 501.634 140.803 504.589 141.519C622.474 170.061 702.492 206.105 754.823 239.751C807.549 273.652 831.116 304.41 838.144 321.757C838.659 323.027 839.023 324.958 838.999 327.879C836.302 655.255 614.498 816.956 500 859.07C385.502 816.956 163.698 655.255 161.001 327.879C160.977 324.958 161.341 323.027 161.855 321.757Z" fill="#C4C4C4" stroke="#758BFD" stroke-width="30"/>
</mask>
<g mask="url(#mask0_105:50)">
<path d="M161.855 321.757L148.003 316.144L161.856 321.757C168.884 304.41 192.451 273.652 245.177 239.751C297.508 206.105 377.526 170.061 495.411 141.519C498.366 140.803 501.634 140.803 504.589 141.519C622.474 170.061 702.492 206.105 754.823 239.751C807.549 273.652 831.116 304.41 838.144 321.757C838.659 323.027 839.023 324.958 838.999 327.879C836.302 655.255 614.498 816.956 500 859.07C385.502 816.956 163.698 655.255 161.001 327.879C160.977 324.958 161.341 323.027 161.855 321.757Z" stroke="#758BFD" stroke-width="30"/>
<path d="M839.012 325.966C837.241 640.825 633.016 802.952 515 853.115V144.083C627.5 172.275 704.452 207.288 755.226 240.01C809.189 274.788 832.39 306.17 838.661 323.087C838.811 323.493 839.021 324.404 839.012 325.966Z" fill="#758BFD" stroke="#758BFD" stroke-width="30"/>
</g>
</svg>
